# xmcd
#
# Track frame offsets:
#	150
#	14607
#	31512
#	49741
#	67498
#	84293
#	106988
#	131606
#	146317
#	160833
#	178233
#	194678
#	209215
#	249901
#
# Disc length: 3344 seconds
#
# Revision: 8
# Processed by: cddbd v1.5.2PL0 Copyright (c) Steve Scherf et al.
# Submitted via: EasyCDDAExtractor 15.3.0.1
#
DISCID=ca0d0e0e
DTITLE=P!nk - Try This
DYEAR=2003
DGENRE=Pop/Rock
TTITLE0=Trouble
TTITLE1=God Is A DJ
TTITLE2=Last To Know
TTITLE3=Tonight's The Night
TTITLE4=Oh My God (Featuring Peaches)
TTITLE5=Catch Me While I'm Sleeping
TTITLE6=Waiting For Love
TTITLE7=Save My Life
TTITLE8=Try Too Hard
TTITLE9=Humble Neighborhoods
TTITLE10=Walk Away
TTITLE11=Unwind
TTITLE12=Love Song
TTITLE13=Data Track
EXTD=
EXTT0=
EXTT1=
EXTT2=
EXTT3=
EXTT4=
EXTT5=
EXTT6=
EXTT7=
EXTT8=
EXTT9=
EXTT10=
EXTT11=
EXTT12=
EXTT13=
PLAYORDER=
